<?xml version="1.0" encoding="UTF-8" standalone="no"?>
<svg
   xmlns:dc="http://purl.org/dc/elements/1.1/"
   xmlns:cc="http://creativecommons.org/ns#"
   xmlns:rdf="http://www.w3.org/1999/02/22-rdf-syntax-ns#"
   xmlns:svg="http://www.w3.org/2000/svg"
   xmlns="http://www.w3.org/2000/svg"
   xmlns:sodipodi="http://sodipodi.sourceforge.net/DTD/sodipodi-0.dtd"
   xmlns:inkscape="http://www.inkscape.org/namespaces/inkscape"
   width="548"
   height="208"
   viewBox="0 0 144.99191 55.033368"
   version="1.1"
   id="svg764"
   inkscape:version="1.0.1 (3bc2e813f5, 2020-09-07)"
   sodipodi:docname="logo.svg">
  <defs
     id="defs758">
    <clipPath
       id="a">
      <path
         id="path179"
         d="m 239.03,226.605 -42.13,24.317 c -1.578,0.91 -2.546,2.59 -2.546,4.406 v 48.668 c 0,1.817 0.968,3.496 2.546,4.406 l 42.133,24.336 c 1.575,0.907 3.517,0.907 5.09,0 l 42.126,-24.336 c 1.57,-0.91 2.54,-2.59 2.54,-4.406 v -48.668 c 0,-1.816 -0.97,-3.496 -2.55,-4.406 l -42.12,-24.317 c -0.79,-0.453 -1.67,-0.68 -2.55,-0.68 -0.88,0 -1.76,0.227 -2.55,0.68" />
    </clipPath>
  </defs>
  <sodipodi:namedview
     id="base"
     pagecolor="#ffffff"
     bordercolor="#666666"
     borderopacity="1.0"
     inkscape:pageopacity="0.0"
     inkscape:pageshadow="2"
     inkscape:zoom="0.98994949"
     inkscape:cx="550.95198"
     inkscape:cy="276.23423"
     inkscape:document-units="mm"
     inkscape:current-layer="layer1"
     inkscape:document-rotation="0"
     showgrid="false"
     units="px"
     inkscape:window-width="1920"
     inkscape:window-height="1016"
     inkscape:window-x="0"
     inkscape:window-y="27"
     inkscape:window-maximized="1" />
  <metadata
     id="metadata761">
    <rdf:RDF>
      <cc:Work
         rdf:about="">
        <dc:format>image/svg+xml</dc:format>
        <dc:type
           rdf:resource="http://purl.org/dc/dcmitype/StillImage" />
        <dc:title></dc:title>
      </cc:Work>
    </rdf:RDF>
  </metadata>
  <g
     inkscape:label="Calque 1"
     inkscape:groupmode="layer"
     id="layer1">
    <g
       id="g819"
       transform="translate(0.19091464,-0.04353123)">
      <path
         style="fill:#333333;fill-rule:evenodd;stroke-width:0.241284"
         inkscape:connector-curvature="0"
         d="m 41.554624,22.338167 c 0,-0.443961 -0.234039,-0.851731 -0.617201,-1.072506 L 30.717614,15.385579 C 30.545095,15.28424 30.351825,15.231157 30.155903,15.22392 h -0.105679 c -0.195919,0.0072 -0.389189,0.06032 -0.564611,0.161659 l -10.219318,5.880082 c -0.38075,0.221981 -0.61817,0.629751 -0.61817,1.073713 l 0.0224,15.837859 c 0,0.21957 0.1134,0.42466 0.30643,0.53324 0.1882,0.11582 0.42466,0.11582 0.61286,0 l 6.07552,-3.47931 c 0.38364,-0.22826 0.61769,-0.63168 0.61769,-1.0713 v -7.398965 c 0,-0.44155 0.23404,-0.849319 0.61648,-1.068887 l 2.586559,-1.489686 c 0.192061,-0.11099 0.402942,-0.166003 0.61768,-0.166003 0.211371,0 0.42708,0.05453 0.613831,0.165762 l 2.58535,1.489203 c 0.38268,0.219568 0.617691,0.627338 0.617691,1.068887 v 7.398479 c 0,0.43914 0.23718,0.84449 0.618889,1.0713 l 6.071669,3.4769 c 0.190611,0.1134 0.427792,0.1134 0.617681,0 0.18724,-0.10858 0.30595,-0.31367 0.30595,-0.53324 z m 48.224895,8.246116 c 0,0.11026 -0.0586,0.21233 -0.15442,0.26686 l -3.5102,2.0234 c -0.0953,0.0548 -0.21305,0.0548 -0.30812,0 l -3.51068,-2.0234 c -0.0965,-0.0548 -0.15442,-0.15684 -0.15442,-0.26686 v -4.052605 c 0,-0.110508 0.0579,-0.21233 0.15201,-0.267825 l 3.50827,-2.026783 c 0.0965,-0.05549 0.21474,-0.05549 0.31125,0 l 3.51068,2.026783 c 0.0965,0.0555 0.15442,0.157317 0.15442,0.267825 z m 0.94824,-30.01617427 c -0.19158,-0.10664797 -0.42466,-0.10375197 -0.61383,0.0065 -0.1882,0.110991 -0.30449,0.313669 -0.30449,0.53323697 V 16.791283 c 0,0.154422 -0.082,0.296779 -0.21571,0.37399 -0.13271,0.07721 -0.29799,0.07721 -0.4319,0 l -2.56002,-1.474483 c -0.38123,-0.220535 -0.85076,-0.220535 -1.23344,0 l -10.22319,5.900108 c -0.38195,0.219568 -0.61769,0.627338 -0.61769,1.066474 v 11.803601 c 0,0.44155 0.23574,0.8469 0.61769,1.06888 l 10.22319,5.90422 c 0.38171,0.21956 0.85173,0.21956 1.23465,0 l 10.22319,-5.90663 c 0.38123,-0.22198 0.61768,-0.62734 0.61768,-1.06888 V 5.0412657 c 0,-0.447822 -0.24369,-0.859693 -0.63457,-1.078538 z M 124.77119,26.425031 c 0.37978,-0.220534 0.61359,-0.62782 0.61359,-1.066957 v -2.860659 c 0,-0.440102 -0.23405,-0.846182 -0.61455,-1.067681 l -10.15804,-5.896972 c -0.38364,-0.221981 -0.85415,-0.221981 -1.23779,0 l -10.22078,5.899385 c -0.38364,0.221981 -0.61768,0.627338 -0.61768,1.068887 v 11.798769 c 0,0.44397 0.23887,0.85415 0.62251,1.07372 l 10.15563,5.78839 c 0.37399,0.21475 0.83243,0.21716 1.21124,0.007 l 6.14309,-3.41412 c 0.19303,-0.10858 0.31608,-0.31367 0.31608,-0.53565 0,-0.22198 -0.11823,-0.42949 -0.31126,-0.53807 l -10.28351,-5.90179 c -0.19303,-0.10858 -0.31125,-0.31367 -0.31125,-0.53324 v -3.70129 c 0,-0.221016 0.11581,-0.42466 0.30884,-0.534685 l 3.19942,-1.84582 c 0.19062,-0.110991 0.42466,-0.110991 0.61528,0 l 3.20183,1.84582 c 0.19061,0.108578 0.30884,0.313669 0.30884,0.533237 v 2.909878 c 0,0.21957 0.11823,0.42466 0.30884,0.53565 0.19062,0.10858 0.42708,0.10858 0.61769,-0.002 z m 0,0"
         id="path219" />
      <path
         style="fill:#3178c6;fill-opacity:1;fill-rule:evenodd;stroke-width:0.241284"
         inkscape:connector-curvature="0"
         d="m 113.8437,25.872974 c 0.0724,-0.04271 0.16311,-0.04271 0.23646,0 l 1.96163,1.131621 c 0.0733,0.04247 0.11823,0.120642 0.11823,0.205089 v 2.265659 c 0,0.0845 -0.0449,0.16262 -0.11823,0.20509 l -1.96163,1.13162 c -0.0734,0.0427 -0.16408,0.0427 -0.23646,0 l -1.96043,-1.13162 c -0.0748,-0.0425 -0.12064,-0.12065 -0.12064,-0.20509 v -2.265659 c 0,-0.08445 0.0434,-0.162624 0.11823,-0.205089 z m 0,0"
         id="path221" />
      <g
         clip-path="url(#a)"
         transform="matrix(0.24128369,0,0,0.24128369,-0.24583406,-39.084451)"
         id="g225"
         style="fill:#3178c6;fill-opacity:1">
        <path
           style="fill:#3178c6;fill-opacity:1"
           inkscape:connector-curvature="0"
           d="m 331.363,246.793 -118.715,-58.19 -60.87,124.174 118.712,58.193 z m 0,0"
           id="path223" />
      </g>
      <text
         xml:space="preserve"
         style="font-style:normal;font-weight:normal;font-size:8.77022px;line-height:1.25;font-family:sans-serif;letter-spacing:0px;word-spacing:0px;opacity:0.98;fill:#3178c6;fill-opacity:1;stroke:none;stroke-width:0.219256"
         x="34.027897"
         y="54.443317"
         id="text4520-6-7"><tspan
           x="34.027897"
           y="54.443317"
           style="font-style:normal;font-variant:normal;font-weight:bold;font-stretch:normal;font-size:11.6936px;font-family:Courier;-inkscape-font-specification:'Courier Bold';fill:#3178c6;fill-opacity:1;stroke-width:0.219256"
           id="tspan4524-0-5">REST<tspan
   id="tspan4184"
   style="fill:#999999;stroke-width:0.219256">.</tspan>API<tspan
   id="tspan4192"
   style="fill:#333333;stroke-width:0.219256">.ts</tspan></tspan></text>
      <text
         xml:space="preserve"
         style="font-style:normal;font-weight:normal;font-size:8.77022px;line-height:1.25;font-family:sans-serif;text-align:center;letter-spacing:0px;word-spacing:0px;text-anchor:middle;fill:#3e4837;fill-opacity:1;stroke:none;stroke-width:0.219256"
         x="11.649876"
         y="45.095074"
         id="text3724-9"><tspan
           id="tspan3722-3"
           x="11.649876"
           y="45.095074"
           style="font-style:normal;font-variant:normal;font-weight:normal;font-stretch:normal;font-size:58.4684px;font-family:'DejaVu Sans Mono';-inkscape-font-specification:'DejaVu Sans Mono';text-align:center;text-anchor:middle;fill:#cccccc;stroke-width:0.219256">{</tspan></text>
      <text
         xml:space="preserve"
         style="font-style:normal;font-weight:normal;font-size:8.77022px;line-height:1.25;font-family:sans-serif;text-align:center;letter-spacing:0px;word-spacing:0px;text-anchor:middle;fill:#3e4837;fill-opacity:1;stroke:none;stroke-width:0.219256"
         x="132.96021"
         y="45.095074"
         id="text3724-3-6"><tspan
           id="tspan3722-6-0"
           x="132.96021"
           y="45.095074"
           style="font-style:normal;font-variant:normal;font-weight:normal;font-stretch:normal;font-size:58.4684px;font-family:'DejaVu Sans Mono';-inkscape-font-specification:'DejaVu Sans Mono';text-align:center;text-anchor:middle;fill:#cccccc;stroke-width:0.219256">}</tspan></text>
      <g
         style="fill:none"
         id="g96-6-7"
         transform="matrix(0.02960106,0,0,0.02960106,54.059171,19.429346)">
        <rect
           id="rect79-2-5"
           width="437.38977"
           rx="50"
           height="355.77966"
           x="74.610168"
           y="156.22034"
           style="fill:#3178c6" />
        <path
           id="path83-1-2"
           d="m 316.939,407.424 v 50.061 c 8.138,4.172 17.763,7.3 28.875,9.386 11.112,2.086 22.823,3.129 35.135,3.129 11.999,0 23.397,-1.147 34.196,-3.442 10.799,-2.294 20.268,-6.075 28.406,-11.342 8.138,-5.266 14.581,-12.15 19.328,-20.65 4.747,-8.5 7.121,-19.007 7.121,-31.522 0,-9.074 -1.356,-17.026 -4.069,-23.857 -2.713,-6.831 -6.625,-12.906 -11.738,-18.225 -5.112,-5.319 -11.242,-10.091 -18.389,-14.315 -7.147,-4.224 -15.207,-8.213 -24.18,-11.967 -6.573,-2.712 -12.468,-5.345 -17.685,-7.9 -5.217,-2.556 -9.651,-5.163 -13.303,-7.822 -3.652,-2.66 -6.469,-5.476 -8.451,-8.448 -1.982,-2.973 -2.974,-6.336 -2.974,-10.091 0,-3.441 0.887,-6.544 2.661,-9.308 1.774,-2.764 4.278,-5.136 7.512,-7.118 3.235,-1.981 7.199,-3.52 11.894,-4.615 4.696,-1.095 9.912,-1.642 15.651,-1.642 4.173,0 8.581,0.313 13.224,0.938 4.643,0.626 9.312,1.591 14.008,2.894 4.695,1.304 9.259,2.947 13.694,4.928 4.434,1.982 8.529,4.276 12.285,6.884 v -46.776 c -7.616,-2.92 -15.937,-5.084 -24.962,-6.492 -9.025,-1.408 -19.381,-2.112 -31.066,-2.112 -11.895,0 -23.163,1.278 -33.805,3.833 -10.642,2.555 -20.006,6.544 -28.093,11.967 -8.086,5.424 -14.476,12.333 -19.171,20.729 -4.695,8.395 -7.043,18.433 -7.043,30.114 0,14.914 4.304,27.638 12.912,38.172 8.607,10.533 21.675,19.45 39.204,26.751 6.886,2.816 13.303,5.579 19.25,8.291 5.947,2.712 11.086,5.528 15.415,8.448 4.33,2.92 7.747,6.101 10.252,9.543 2.504,3.441 3.756,7.352 3.756,11.733 0,3.233 -0.783,6.231 -2.348,8.995 -1.565,2.764 -3.939,5.162 -7.121,7.196 -3.182,2.034 -7.147,3.624 -11.894,4.771 -4.748,1.148 -10.303,1.721 -16.668,1.721 -10.851,0 -21.597,-1.903 -32.24,-5.71 -10.642,-3.806 -20.502,-9.516 -29.579,-17.13 z M 232.78,284.082 H 297 V 243 H 118 v 41.082 h 63.906 V 467 h 50.874 z"
           inkscape:connector-curvature="0"
           style="clip-rule:evenodd;fill:#ffffff;fill-rule:evenodd" />
      </g>
    </g>
  </g>
</svg>
